<svg xmlns="http://www.w3.org/2000/svg" viewBox="0 0 1920 1080" width="1920" height="1080" preserveAspectRatio="xMidYMid meet" style="width: 100%; height: 100%; transform: translate3d(0px, 0px, 0px);"><defs><clipPath id="__lottie_element_26"><rect width="1920" height="1080" x="0" y="0"></rect></clipPath><clipPath id="__lottie_element_28"><path d="M0,0 L45,0 L45,134 L0,134z"></path></clipPath><clipPath id="__lottie_element_32"><path d="M0,0 L55,0 L55,102 L0,102z"></path></clipPath><clipPath id="__lottie_element_36"><path d="M0,0 L42,0 L42,77 L0,77z"></path></clipPath><clipPath id="__lottie_element_97"><path d="M0,0 L97,0 L97,111 L0,111z"></path></clipPath></defs><g clip-path="url(#__lottie_element_26)"><g clip-path="url(#__lottie_element_28)" transform="matrix(2,0.0003223869134671986,-0.0003223869134671986,2,648.5410766601562,631.4921264648438)" opacity="1" style="display: block;"><g transform="matrix(1,0,0,1,22.4689998626709,66.93199920654297)" opacity="1" style="display: block;"><g opacity="1" transform="matrix(1,0,0,1,0,0)"><path fill="rgb(70,112,163)" fill-opacity="1" d=" M5.034999847412109,65.29100036621094 C-13.255000114440918,41.9010009765625 -39.744998931884766,-16.958999633789062 0.6349999904632568,-65.28900146484375 C14.635000228881836,-40.54899978637695 35.1150016784668,20.201000213623047 5.034999847412109,65.29100036621094z"></path></g></g><g transform="matrix(1,0,0,1,30.51099967956543,67.08999633789062)" opacity="1" style="display: block;"><g opacity="1" transform="matrix(1,0,0,1,0,0)"><path fill="rgb(12,12,12)" fill-opacity="0.12" d=" M-3.0139999389648438,65.12899780273438 C-9.12399959564209,30.628999710083008 -18.93400001525879,-43.83100128173828 -7.223999977111816,-65.13099670410156 C6.685999870300293,-40.06100082397461 27.4060001373291,21.198999404907227 -3.0139999389648438,65.12899780273438z"></path></g></g></g><g clip-path="url(#__lottie_element_32)" transform="matrix(2,-0.0002341030049137771,0.0002341030049137771,2,692.4786987304688,724.0011596679688)" opacity="1" style="display: block;"><g transform="matrix(1,0,0,1,27.309999465942383,51.33399963378906)" opacity="1" style="display: block;"><g opacity="1" transform="matrix(1,0,0,1,0,0)"><path fill="rgb(54,117,163)" fill-opacity="1" d=" M-25.562999725341797,48.722999572753906 C-29.072999954223633,23.87299919128418 -23.58300018310547,-30.406999588012695 26.41699981689453,-48.72700119018555 C26.207000732421875,-24.69700050354004 15.527000427246094,28.433000564575195 -25.562999725341797,48.722999572753906z"></path></g></g><g transform="matrix(1,0,0,1,27.733999252319336,51.48899841308594)" opacity="1" style="display: block;"><g opacity="1" transform="matrix(1,0,0,1,0,0)"><path fill="rgb(12,12,12)" fill-opacity="0.12" d=" M-25.988000869750977,48.56800079345703 C-15.878000259399414,20.72800064086914 8.411999702453613,-37.93199920654297 25.992000579833984,-48.571998596191406 C25.57200050354004,-24.332000732421875 14.85200023651123,29.26799964904785 -25.988000869750977,48.56800079345703z"></path></g></g></g><g clip-path="url(#__lottie_element_36)" transform="matrix(2,0.00035689378273673356,-0.00035689378273673356,2,617.023193359375,776.48681640625)" opacity="1" style="display: block;"><g transform="matrix(1,0,0,1,20.493999481201172,38.194000244140625)" opacity="1" style="display: block;"><g opacity="1" transform="matrix(1,0,0,1,0,0)"><path fill="rgb(58,144,193)" fill-opacity="1" d=" M19.15999984741211,36.52299880981445 C21.790000915527344,17.89299964904785 17.68000030517578,-22.797000885009766 -19.799999237060547,-36.527000427246094 C-19.649999618530273,-18.517000198364258 -11.640000343322754,21.312999725341797 19.15999984741211,36.52299880981445z"></path></g></g><g transform="matrix(1,0,0,1,20.174999237060547,38.310001373291016)" opacity="1" style="display: block;"><g opacity="1" transform="matrix(1,0,0,1,0,0)"><path fill="rgb(12,12,12)" fill-opacity="0.12" d=" M19.479000091552734,36.409000396728516 C11.909000396728516,15.538999557495117 -6.310999870300293,-28.430999755859375 -19.481000900268555,-36.4109992980957 C-19.17099952697754,-18.240999221801758 -11.130999565124512,21.93899917602539 19.479000091552734,36.409000396728516z"></path></g></g></g><g transform="matrix(1,0,0,1,770.6259765625,401.35101318359375)" opacity="1" style="display: block;"><g opacity="1" transform="matrix(1,0,0,1,0,0)"><path fill="rgb(13,68,133)" fill-opacity="1" d=" M154.375,-134.8564910888672 C154.375,-134.8564910888672 154.375,134.8564910888672 154.375,134.8564910888672 C154.375,144.6494140625 146.42391967773438,152.60049438476562 136.63099670410156,152.60049438476562 C136.63099670410156,152.60049438476562 -136.63099670410156,152.60049438476562 -136.63099670410156,152.60049438476562 C-146.42391967773438,152.60049438476562 -154.375,144.6494140625 -154.375,134.8564910888672 C-154.375,134.8564910888672 -154.375,-134.8564910888672 -154.375,-134.8564910888672 C-154.375,-144.6494140625 -146.42391967773438,-152.60049438476562 -136.63099670410156,-152.60049438476562 C-136.63099670410156,-152.60049438476562 136.63099670410156,-152.60049438476562 136.63099670410156,-152.60049438476562 C146.42391967773438,-152.60049438476562 154.375,-144.6494140625 154.375,-134.8564910888672z"></path></g></g><g transform="matrix(1,0,0,1,797.2440185546875,297.5480041503906)" opacity="1" style="display: block;"><g opacity="1" transform="matrix(1,0,0,1,0,0)"><path fill="rgb(255,255,255)" fill-opacity="1" d=" M108.23999786376953,0 C108.23999786376953,0 108.23999786376953,0 108.23999786376953,0 C108.23999786376953,2.448228359222412 106.25222778320312,4.435999870300293 103.80400085449219,4.435999870300293 C103.80400085449219,4.435999870300293 -103.80400085449219,4.435999870300293 -103.80400085449219,4.435999870300293 C-106.25222778320312,4.435999870300293 -108.23999786376953,2.448228359222412 -108.23999786376953,0 C-108.23999786376953,0 -108.23999786376953,0 -108.23999786376953,0 C-108.23999786376953,-2.448228359222412 -106.25222778320312,-4.435999870300293 -103.80400085449219,-4.435999870300293 C-103.80400085449219,-4.435999870300293 103.80400085449219,-4.435999870300293 103.80400085449219,-4.435999870300293 C106.25222778320312,-4.435999870300293 108.23999786376953,-2.448228359222412 108.23999786376953,0z"></path></g></g><g transform="matrix(1,0,0,1,748.447021484375,315.2909851074219)" opacity="1" style="display: block;"><g opacity="1" transform="matrix(1,0,0,1,0,0)"><path fill="rgb(255,255,255)" fill-opacity="1" d=" M59.44350051879883,0 C59.44350051879883,0 59.44350051879883,0 59.44350051879883,0 C59.44350051879883,2.448228359222412 57.45573043823242,4.435999870300293 55.00749969482422,4.435999870300293 C55.00749969482422,4.435999870300293 -55.00749969482422,4.435999870300293 -55.00749969482422,4.435999870300293 C-57.45573043823242,4.435999870300293 -59.44350051879883,2.448228359222412 -59.44350051879883,0 C-59.44350051879883,0 -59.44350051879883,0 -59.44350051879883,0 C-59.44350051879883,-2.448228359222412 -57.45573043823242,-4.435999870300293 -55.00749969482422,-4.435999870300293 C-55.00749969482422,-4.435999870300293 55.00749969482422,-4.435999870300293 55.00749969482422,-4.435999870300293 C57.45573043823242,-4.435999870300293 59.44350051879883,-2.448228359222412 59.44350051879883,0z"></path></g></g><g transform="matrix(1,0,0,1,656.177001953125,306.4200134277344)" opacity="1" style="display: block;"><g opacity="1" transform="matrix(1,0,0,1,0,0)"><path fill="rgb(255,255,255)" fill-opacity="1" d=" M16.85700035095215,-11.534000396728516 C16.85700035095215,-11.534000396728516 16.85700035095215,11.534000396728516 16.85700035095215,11.534000396728516 C16.85700035095215,14.471763610839844 14.471763610839844,16.85700035095215 11.534000396728516,16.85700035095215 C11.534000396728516,16.85700035095215 -11.534000396728516,16.85700035095215 -11.534000396728516,16.85700035095215 C-14.471763610839844,16.85700035095215 -16.85700035095215,14.471763610839844 -16.85700035095215,11.534000396728516 C-16.85700035095215,11.534000396728516 -16.85700035095215,-11.534000396728516 -16.85700035095215,-11.534000396728516 C-16.85700035095215,-14.471763610839844 -14.471763610839844,-16.85700035095215 -11.534000396728516,-16.85700035095215 C-11.534000396728516,-16.85700035095215 11.534000396728516,-16.85700035095215 11.534000396728516,-16.85700035095215 C14.471763610839844,-16.85700035095215 16.85700035095215,-14.471763610839844 16.85700035095215,-11.534000396728516z"></path></g></g><g transform="matrix(1,0,0,1,797.2440185546875,361.427001953125)" opacity="1" style="display: block;"><g opacity="1" transform="matrix(1,0,0,1,0,0)"><path fill="rgb(255,255,255)" fill-opacity="1" d=" M108.23999786376953,0 C108.23999786376953,0 108.23999786376953,0 108.23999786376953,0 C108.23999786376953,2.448228359222412 106.25222778320312,4.435999870300293 103.80400085449219,4.435999870300293 C103.80400085449219,4.435999870300293 -103.80400085449219,4.435999870300293 -103.80400085449219,4.435999870300293 C-106.25222778320312,4.435999870300293 -108.23999786376953,2.448228359222412 -108.23999786376953,0 C-108.23999786376953,0 -108.23999786376953,0 -108.23999786376953,0 C-108.23999786376953,-2.448228359222412 -106.25222778320312,-4.435999870300293 -103.80400085449219,-4.435999870300293 C-103.80400085449219,-4.435999870300293 103.80400085449219,-4.435999870300293 103.80400085449219,-4.435999870300293 C106.25222778320312,-4.435999870300293 108.23999786376953,-2.448228359222412 108.23999786376953,0z"></path></g></g><g transform="matrix(1,0,0,1,748.447021484375,379.1700134277344)" opacity="1" style="display: block;"><g opacity="1" transform="matrix(1,0,0,1,0,0)"><path fill="rgb(255,255,255)" fill-opacity="1" d=" M59.44350051879883,0 C59.44350051879883,0 59.44350051879883,0 59.44350051879883,0 C59.44350051879883,2.448228359222412 57.45573043823242,4.435999870300293 55.00749969482422,4.435999870300293 C55.00749969482422,4.435999870300293 -55.00749969482422,4.435999870300293 -55.00749969482422,4.435999870300293 C-57.45573043823242,4.435999870300293 -59.44350051879883,2.448228359222412 -59.44350051879883,0 C-59.44350051879883,0 -59.44350051879883,0 -59.44350051879883,0 C-59.44350051879883,-2.448228359222412 -57.45573043823242,-4.435999870300293 -55.00749969482422,-4.435999870300293 C-55.00749969482422,-4.435999870300293 55.00749969482422,-4.435999870300293 55.00749969482422,-4.435999870300293 C57.45573043823242,-4.435999870300293 59.44350051879883,-2.448228359222412 59.44350051879883,0z"></path></g></g><g transform="matrix(1,0,0,1,656.177001953125,370.29901123046875)" opacity="1" style="display: block;"><g opacity="1" transform="matrix(1,0,0,1,0,0)"><path fill="rgb(255,255,255)" fill-opacity="1" d=" M16.85700035095215,-11.534000396728516 C16.85700035095215,-11.534000396728516 16.85700035095215,11.534000396728516 16.85700035095215,11.534000396728516 C16.85700035095215,14.471763610839844 14.471763610839844,16.85700035095215 11.534000396728516,16.85700035095215 C11.534000396728516,16.85700035095215 -11.534000396728516,16.85700035095215 -11.534000396728516,16.85700035095215 C-14.471763610839844,16.85700035095215 -16.85700035095215,14.471763610839844 -16.85700035095215,11.534000396728516 C-16.85700035095215,11.534000396728516 -16.85700035095215,-11.534000396728516 -16.85700035095215,-11.534000396728516 C-16.85700035095215,-14.471763610839844 -14.471763610839844,-16.85700035095215 -11.534000396728516,-16.85700035095215 C-11.534000396728516,-16.85700035095215 11.534000396728516,-16.85700035095215 11.534000396728516,-16.85700035095215 C14.471763610839844,-16.85700035095215 16.85700035095215,-14.471763610839844 16.85700035095215,-11.534000396728516z"></path></g></g><g transform="matrix(1,0,0,1,797.2440185546875,425.3059997558594)" opacity="1" style="display: block;"><g opacity="1" transform="matrix(1,0,0,1,0,0)"><path fill="rgb(255,255,255)" fill-opacity="1" d=" M108.23999786376953,0 C108.23999786376953,0 108.23999786376953,0 108.23999786376953,0 C108.23999786376953,2.448228359222412 106.25222778320312,4.435999870300293 103.80400085449219,4.435999870300293 C103.80400085449219,4.435999870300293 -103.80400085449219,4.435999870300293 -103.80400085449219,4.435999870300293 C-106.25222778320312,4.435999870300293 -108.23999786376953,2.448228359222412 -108.23999786376953,0 C-108.23999786376953,0 -108.23999786376953,0 -108.23999786376953,0 C-108.23999786376953,-2.448228359222412 -106.25222778320312,-4.435999870300293 -103.80400085449219,-4.435999870300293 C-103.80400085449219,-4.435999870300293 103.80400085449219,-4.435999870300293 103.80400085449219,-4.435999870300293 C106.25222778320312,-4.435999870300293 108.23999786376953,-2.448228359222412 108.23999786376953,0z"></path></g></g><g transform="matrix(1,0,0,1,748.447021484375,443.04901123046875)" opacity="1" style="display: block;"><g opacity="1" transform="matrix(1,0,0,1,0,0)"><path fill="rgb(255,255,255)" fill-opacity="1" d=" M59.44350051879883,0 C59.44350051879883,0 59.44350051879883,0 59.44350051879883,0 C59.44350051879883,2.448228359222412 57.45573043823242,4.435999870300293 55.00749969482422,4.435999870300293 C55.00749969482422,4.435999870300293 -55.00749969482422,4.435999870300293 -55.00749969482422,4.435999870300293 C-57.45573043823242,4.435999870300293 -59.44350051879883,2.448228359222412 -59.44350051879883,0 C-59.44350051879883,0 -59.44350051879883,0 -59.44350051879883,0 C-59.44350051879883,-2.448228359222412 -57.45573043823242,-4.435999870300293 -55.00749969482422,-4.435999870300293 C-55.00749969482422,-4.435999870300293 55.00749969482422,-4.435999870300293 55.00749969482422,-4.435999870300293 C57.45573043823242,-4.435999870300293 59.44350051879883,-2.448228359222412 59.44350051879883,0z"></path></g></g><g transform="matrix(1,0,0,1,656.177001953125,434.1780090332031)" opacity="1" style="display: block;"><g opacity="1" transform="matrix(1,0,0,1,0,0)"><path fill="rgb(255,255,255)" fill-opacity="1" d=" M16.85700035095215,-11.534000396728516 C16.85700035095215,-11.534000396728516 16.85700035095215,11.534000396728516 16.85700035095215,11.534000396728516 C16.85700035095215,14.471763610839844 14.471763610839844,16.85700035095215 11.534000396728516,16.85700035095215 C11.534000396728516,16.85700035095215 -11.534000396728516,16.85700035095215 -11.534000396728516,16.85700035095215 C-14.471763610839844,16.85700035095215 -16.85700035095215,14.471763610839844 -16.85700035095215,11.534000396728516 C-16.85700035095215,11.534000396728516 -16.85700035095215,-11.534000396728516 -16.85700035095215,-11.534000396728516 C-16.85700035095215,-14.471763610839844 -14.471763610839844,-16.85700035095215 -11.534000396728516,-16.85700035095215 C-11.534000396728516,-16.85700035095215 11.534000396728516,-16.85700035095215 11.534000396728516,-16.85700035095215 C14.471763610839844,-16.85700035095215 16.85700035095215,-14.471763610839844 16.85700035095215,-11.534000396728516z"></path></g></g><g transform="matrix(1,0,0,1,797.2440185546875,489.1860046386719)" opacity="1" style="display: block;"><g opacity="1" transform="matrix(1,0,0,1,0,0)"><path fill="rgb(255,255,255)" fill-opacity="1" d=" M108.23999786376953,0 C108.23999786376953,0 108.23999786376953,0 108.23999786376953,0 C108.23999786376953,2.448228359222412 106.25222778320312,4.435999870300293 103.80400085449219,4.435999870300293 C103.80400085449219,4.435999870300293 -103.80400085449219,4.435999870300293 -103.80400085449219,4.435999870300293 C-106.25222778320312,4.435999870300293 -108.23999786376953,2.448228359222412 -108.23999786376953,0 C-108.23999786376953,0 -108.23999786376953,0 -108.23999786376953,0 C-108.23999786376953,-2.448228359222412 -106.25222778320312,-4.435999870300293 -103.80400085449219,-4.435999870300293 C-103.80400085449219,-4.435999870300293 103.80400085449219,-4.435999870300293 103.80400085449219,-4.435999870300293 C106.25222778320312,-4.435999870300293 108.23999786376953,-2.448228359222412 108.23999786376953,0z"></path></g></g><g transform="matrix(1,0,0,1,748.447021484375,506.92999267578125)" opacity="1" style="display: block;"><g opacity="1" transform="matrix(1,0,0,1,0,0)"><path fill="rgb(255,255,255)" fill-opacity="1" d=" M59.44350051879883,0 C59.44350051879883,0 59.44350051879883,0 59.44350051879883,0 C59.44350051879883,2.448228359222412 57.45573043823242,4.435999870300293 55.00749969482422,4.435999870300293 C55.00749969482422,4.435999870300293 -55.00749969482422,4.435999870300293 -55.00749969482422,4.435999870300293 C-57.45573043823242,4.435999870300293 -59.44350051879883,2.448228359222412 -59.44350051879883,0 C-59.44350051879883,0 -59.44350051879883,0 -59.44350051879883,0 C-59.44350051879883,-2.448228359222412 -57.45573043823242,-4.435999870300293 -55.00749969482422,-4.435999870300293 C-55.00749969482422,-4.435999870300293 55.00749969482422,-4.435999870300293 55.00749969482422,-4.435999870300293 C57.45573043823242,-4.435999870300293 59.44350051879883,-2.448228359222412 59.44350051879883,0z"></path></g></g><g transform="matrix(1,0,0,1,656.177001953125,498.0580139160156)" opacity="1" style="display: block;"><g opacity="1" transform="matrix(1,0,0,1,0,0)"><path fill="rgb(255,255,255)" fill-opacity="1" d=" M16.85700035095215,-11.534000396728516 C16.85700035095215,-11.534000396728516 16.85700035095215,11.534000396728516 16.85700035095215,11.534000396728516 C16.85700035095215,14.471763610839844 14.471763610839844,16.85700035095215 11.534000396728516,16.85700035095215 C11.534000396728516,16.85700035095215 -11.534000396728516,16.85700035095215 -11.534000396728516,16.85700035095215 C-14.471763610839844,16.85700035095215 -16.85700035095215,14.471763610839844 -16.85700035095215,11.534000396728516 C-16.85700035095215,11.534000396728516 -16.85700035095215,-11.534000396728516 -16.85700035095215,-11.534000396728516 C-16.85700035095215,-14.471763610839844 -14.471763610839844,-16.85700035095215 -11.534000396728516,-16.85700035095215 C-11.534000396728516,-16.85700035095215 11.534000396728516,-16.85700035095215 11.534000396728516,-16.85700035095215 C14.471763610839844,-16.85700035095215 16.85700035095215,-14.471763610839844 16.85700035095215,-11.534000396728516z"></path></g></g><g transform="matrix(1,0,0,1,657.56298828125,306.56201171875)" opacity="1" style="display: block;"><g opacity="1" transform="matrix(1,0,0,1,0,0)"><path stroke-linecap="butt" stroke-linejoin="miter" fill-opacity="0" stroke-miterlimit="4" stroke="rgb(40,121,112)" stroke-opacity="1" stroke-width="5.323" d="M0 0"></path></g></g><g transform="matrix(1,0,0,1,657.56298828125,370.31201171875)" opacity="1" style="display: block;"><g opacity="1" transform="matrix(1,0,0,1,0,0)"><path stroke-linecap="butt" stroke-linejoin="miter" fill-opacity="0" stroke-miterlimit="4" stroke="rgb(40,121,112)" stroke-opacity="1" stroke-width="5.323" d="M0 0"></path></g></g><g transform="matrix(1,0,0,1,656.06298828125,432.31201171875)" opacity="1" style="display: block;"><g opacity="1" transform="matrix(1,0,0,1,0,0)"><path stroke-linecap="butt" stroke-linejoin="miter" fill-opacity="0" stroke-miterlimit="4" stroke="rgb(40,121,112)" stroke-opacity="1" stroke-width="5.323" d="M0 0"></path></g></g><g transform="matrix(1,0,0,1,654.81298828125,494.31201171875)" opacity="1" style="display: block;"><g opacity="1" transform="matrix(1,0,0,1,0,0)"><path stroke-linecap="butt" stroke-linejoin="miter" fill-opacity="0" stroke-miterlimit="4" stroke="rgb(40,121,112)" stroke-opacity="1" stroke-width="5.323" d="M0 0"></path></g></g><g transform="matrix(1,0,0,1,953.052001953125,539.4390258789062)" opacity="1" style="display: block;"><g opacity="1" transform="matrix(1,0,0,1,0,0)"><path fill="rgb(163,105,105)" fill-opacity="1" d=" M-121.2959976196289,349.68798828125 C-121.2959976196289,349.68798828125 -118.7959976196289,384.0580139160156 -118.7959976196289,384.0580139160156 C-118.7959976196289,384.0580139160156 -100.66600036621094,384.0580139160156 -100.66600036621094,384.0580139160156 C-100.66600036621094,384.0580139160156 -100.66600036621094,349.68798828125 -100.66600036621094,349.68798828125 C-100.66600036621094,349.68798828125 -121.2959976196289,349.68798828125 -121.2959976196289,349.68798828125z M-8.170999526977539,384.0580139160156 C-8.170999526977539,384.0580139160156 -10.670999526977539,349.68798828125 -10.670999526977539,349.68798828125 C-10.670999526977539,349.68798828125 9.958999633789062,349.68798828125 9.958999633789062,349.68798828125 C9.958999633789062,349.68798828125 9.958999633789062,384.0580139160156 9.958999633789062,384.0580139160156 C9.958999633789062,384.0580139160156 -8.170999526977539,384.0580139160156 -8.170999526977539,384.0580139160156z M-104.96600341796875,-312.7019958496094 C-104.96600341796875,-312.7019958496094 -100.48600006103516,-283.052001953125 -100.48600006103516,-283.052001953125 C-100.48600006103516,-283.052001953125 -100.48600006103516,-270.0320129394531 -100.48600006103516,-270.0320129394531 C-100.48600006103516,-270.0320129394531 -67.07599639892578,-270.0320129394531 -67.07599639892578,-270.0320129394531 C-67.07599639892578,-270.0320129394531 -67.07599639892578,-281.35198974609375 -67.07599639892578,-281.35198974609375 C-67.07599639892578,-281.35198974609375 -69.70600128173828,-305.87200927734375 -69.70600128173828,-305.87200927734375 C-69.70600128173828,-305.87200927734375 -72.4540023803711,-324.8689880371094 -84.50299835205078,-326.65399169921875 C-96.552001953125,-328.4389953613281 -106.86799621582031,-314.2929992675781 -104.96600341796875,-312.7019958496094z"></path></g></g><g transform="matrix(1,0,0,1,947.3829956054688,906.6270141601562)" opacity="1" style="display: block;"><g opacity="1" transform="matrix(1,0,0,1,0,0)"><path fill="rgb(26,26,26)" fill-opacity="0.22" d=" M-2.494999885559082,17.5 C-2.494999885559082,17.5 -4.375,-17.5 -4.375,-17.5 C-4.375,-17.5 3.125,-17.5 3.125,-17.5 C3.125,-17.5 4.375,17.5 4.375,17.5 C4.375,17.5 -2.494999885559082,17.5 -2.494999885559082,17.5z"></path></g></g><g clip-path="url(#__lottie_element_97)" transform="matrix(1,0,0,1,826,127)" opacity="1" style="display: block;"><g transform="matrix(1,0,0,1,127.052001953125,412.4389953613281)" opacity="1" style="display: block;"><g opacity="1" transform="matrix(1,0,0,1,0,0)"><path fill="rgb(163,105,105)" fill-opacity="1" d=" M-49.47600173950195,-335.1319885253906 C-49.47600173950195,-335.1319885253906 -49.965999603271484,-359.8320007324219 -53.22600173950195,-374.7919921875 C-55.32600021362305,-384.4519958496094 -61.99599838256836,-384.24200439453125 -70.00599670410156,-383.98199462890625 C-71.34600067138672,-383.9419860839844 -72.71600341796875,-383.8919982910156 -74.10600280761719,-383.8919982910156 C-101.41600036621094,-383.8919982910156 -125.06600189208984,-365.7720031738281 -113.11599731445312,-325.3819885253906 C-111.40599822998047,-319.62200927734375 -108.38600158691406,-315.56201171875 -104.96600341796875,-312.7019958496094 C-104.96600341796875,-312.7019958496094 -69.70600128173828,-305.87200927734375 -69.70600128173828,-305.87200927734375 C-69.70600128173828,-305.87200927734375 -66.51599884033203,-305.87200927734375 -66.51599884033203,-305.87200927734375 C-56.986000061035156,-305.87200927734375 -49.86600112915039,-325.3819885253906 -49.47600173950195,-335.1319885253906z"></path></g></g><g transform="matrix(1,0,0,1,48.4109992980957,54.72700119018555)" opacity="1" style="display: block;"><g opacity="1" transform="matrix(1,0,0,1,0,0)"><path fill="rgb(26,26,26)" fill-opacity="1" d=" M1.0950000286102295,43.65399932861328 C1.0950000286102295,43.65399932861328 -9.414999961853027,51.39400100708008 -9.414999961853027,51.39400100708008 C-15.074999809265137,52.13399887084961 -20.03499984741211,51.39400100708008 -20.03499984741211,51.39400100708008 C-20.03499984741211,51.39400100708008 -27.655000686645508,47.77399826049805 -27.655000686645508,47.77399826049805 C-27.655000686645508,47.77399826049805 -47.42499923706055,4.883999824523926 -44.564998626708984,-6.546000003814697 C-41.70500183105469,-17.986000061035156 -40.76499938964844,-23.236000061035156 -33.125,-30.56599998474121 C-24.415000915527344,-38.93600082397461 -5.625,-39.93600082397461 -5.625,-39.93600082397461 C-5.625,-39.93600082397461 42.78499984741211,-63.555999755859375 44.69499969482422,-43.93600082397461 C45.64500045776367,-34.18600082397461 41.904998779296875,-29.076000213623047 34.404998779296875,-22.775999069213867 C24.774999618530273,-14.685999870300293 2.384999990463257,-17.625999450683594 2.384999990463257,-17.625999450683594 C2.384999990463257,-17.625999450683594 11.954999923706055,9.074000358581543 2.384999990463257,18.27400016784668 C-4.375,24.77400016784668 1.0950000286102295,43.65399932861328 1.0950000286102295,43.65399932861328z"></path></g></g></g><g transform="matrix(1,0,0,1,837.0700073242188,911.6270141601562)" opacity="1" style="display: block;"><g opacity="1" transform="matrix(1,0,0,1,0,0)"><path fill="rgb(26,26,26)" fill-opacity="0.22" d=" M-2.187999963760376,17.5 C-2.187999963760376,17.5 -4.688000202178955,-17.5 -4.688000202178955,-17.5 C-4.688000202178955,-17.5 3.443000078201294,-17.5 3.443000078201294,-17.5 C3.443000078201294,-17.5 4.692999839782715,17.5 4.692999839782715,17.5 C4.692999839782715,17.5 -2.187999963760376,17.5 -2.187999963760376,17.5z"></path></g></g><g transform="matrix(1,0,0,1,892.0360107421875,695.10302734375)" opacity="1" style="display: block;"><g opacity="1" transform="matrix(1,0,0,1,0,0)"><path fill="rgb(63,172,207)" fill-opacity="1" d=" M-74.64900207519531,6.5289998054504395 C-82.77899932861328,-132.2209930419922 -80.89900207519531,-193.4709930419922 -80.89900207519531,-193.4709930419922 C-80.89900207519531,-193.4709930419922 -34.01900100708008,-187.58099365234375 -12.14900016784668,-188.4709930419922 C19.35099983215332,-186.9510040283203 42.22100067138672,-212.8509979248047 42.22100067138672,-212.8509979248047 C42.22100067138672,-212.8509979248047 65.35099792480469,6.5289998054504395 65.35099792480469,6.5289998054504395 C65.35099792480469,6.5289998054504395 73.59100341796875,124.26899719238281 81.09100341796875,205.8990020751953 C75.46099853515625,213.3990020751953 49.72100067138672,214.0189971923828 42.85100173950195,205.8990020751953 C42.85100173950195,205.8990020751953 9.720999717712402,6.5289998054504395 9.720999717712402,6.5289998054504395 C9.720999717712402,6.5289998054504395 -19.02899932861328,-103.47100067138672 -19.02899932861328,-103.47100067138672 C-19.02899932861328,-103.47100067138672 -19.02899932861328,6.5289998054504395 -19.02899932861328,6.5289998054504395 C-19.02899932861328,6.5289998054504395 -29.02899932861328,205.8990020751953 -29.02899932861328,205.8990020751953 C-45.52899932861328,215.218994140625 -53.159000396728516,215.11900329589844 -68.39900207519531,205.8990020751953 C-68.39900207519531,205.8990020751953 -74.64900207519531,6.5289998054504395 -74.64900207519531,6.5289998054504395z"></path></g></g><g transform="matrix(1,0,0,1,829.10302734375,701.9400024414062)" opacity="1" style="display: block;"><g opacity="1" transform="matrix(1,0,0,1,0,0)"><path fill="rgb(26,26,26)" fill-opacity="0.12" d=" M17.658000946044922,-118.43800354003906 C16.738000869750977,-150.84800720214844 -17.972000122070312,-193.43800354003906 -17.972000122070312,-193.43800354003906 C-17.972000122070312,-152.18800354003906 -14.222000122070312,31.562000274658203 -5.4720001220703125,193.44200134277344 C-5.4720001220703125,193.44200134277344 19.447999954223633,184.5919952392578 17.658000946044922,172.81199645996094 C-0.47200000286102295,54.0620002746582 20.777999877929688,-7.808000087738037 17.658000946044922,-118.43800354003906z"></path></g></g><g transform="matrix(1,0,0,1,914.9409790039062,595.0289916992188)" opacity="1" style="display: block;"><g opacity="1" transform="matrix(1,0,0,1,0,0)"><path fill="rgb(255,105,105)" fill-opacity="1" d=" M-85.00399780273438,350.72900390625 C-84.73400115966797,351.39898681640625 -84.44400024414062,352.0989990234375 -84.14399719238281,352.8489990234375 C-84.14399719238281,352.8489990234375 -45.91400146484375,352.8489990234375 -45.91400146484375,352.8489990234375 C-45.25400161743164,352.8489990234375 -44.48400115966797,352.8489990234375 -43.64400100708008,352.8590087890625 C-32.194000244140625,352.9490051269531 -5.823999881744385,353.14898681640625 -18.583999633789062,340.3489990234375 C-20.52400016784668,338.40899658203125 -27.634000778198242,336.5589904785156 -36.14400100708008,334.3389892578125 C-44.263999938964844,332.218994140625 -53.66400146484375,329.7690124511719 -61.06399917602539,326.5989990234375 C-61.06399917602539,326.5989990234375 -68.25399780273438,328.5190124511719 -72.96399688720703,328.468994140625 C-77.39399719238281,328.4289855957031 -84.14399719238281,326.5989990234375 -84.14399719238281,326.5989990234375 C-89.59400177001953,339.52899169921875 -89.27400207519531,340.29901123046875 -85.00399780273438,350.72900390625z M27.510000228881836,352.8489990234375 C27.239999771118164,352.1889953613281 26.989999771118164,351.5690002441406 26.75,350.97900390625 C22.389999389648438,340.3089904785156 22.110000610351562,339.6289978027344 27.510000228881836,326.5989990234375 C27.510000228881836,326.5989990234375 34.2599983215332,328.4289855957031 38.689998626708984,328.47900390625 C43.400001525878906,328.5190124511719 50.59000015258789,326.5989990234375 50.59000015258789,326.5989990234375 C60.400001525878906,332.0190124511719 72.73999786376953,334.97900390625 81.88999938964844,337.16900634765625 C86.87000274658203,338.3689880371094 90.9000015258789,339.3389892578125 93.06999969482422,340.3489990234375 C110.63999938964844,348.5889892578125 75.68000030517578,354.968994140625 65.73999786376953,352.8489990234375 C65.73999786376953,352.8489990234375 27.510000228881836,352.8489990234375 27.510000228881836,352.8489990234375z M-127.51200103759766,-316.19000244140625 C-127.51200103759766,-316.19000244140625 -79.43199920654297,-349.0299987792969 -79.43199920654297,-349.0299987792969 C-60.152000427246094,-355.4599914550781 -50.25199890136719,-353.2799987792969 -39.22200012207031,-350.8500061035156 C-36.3120002746582,-350.2099914550781 -33.321998596191406,-349.54998779296875 -30.062000274658203,-349.0299987792969 C-30.062000274658203,-349.0299987792969 20.13800048828125,-323.92999267578125 20.13800048828125,-323.92999267578125 C22.437999725341797,-322.7799987792969 7.377999782562256,-255.00999450683594 6.817999839782715,-257.7799987792969 C6.817999839782715,-257.7799987792969 13.907999992370605,-192.75999450683594 18.687999725341797,-160.89999389648438 C22.327999114990234,-136.66000366210938 18.687999725341797,-109.02999877929688 18.687999725341797,-109.02999877929688 C6.817999839782715,-76.27999877929688 -79.43199920654297,-80.02999877929688 -103.81199645996094,-92.1500015258789 C-103.81199645996094,-92.1500015258789 -113.18199920654297,-149.64999389648438 -113.18199920654297,-149.64999389648438 C-154.83200073242188,-217.88999938964844 -144.51199340820312,-257.5299987792969 -135.91200256347656,-290.55999755859375 C-134.15199279785156,-297.3399963378906 -132.46200561523438,-303.8299865722656 -131.302001953125,-310.239990234375 C-130.8719940185547,-312.6499938964844 -129.53199768066406,-314.80999755859375 -127.51200103759766,-316.19000244140625z"></path></g></g><g transform="matrix(1,0,0,1,801.0260009765625,389.4410095214844)" opacity="1" style="display: block;"><g opacity="1" transform="matrix(1,0,0,1,0,0)"><path stroke-linecap="round" stroke-linejoin="miter" fill-opacity="0" stroke-miterlimit="4" stroke="rgb(26,26,26)" stroke-opacity="0.29" stroke-width="1.25" d=" M1.3530000448226929,56.56700134277344 C1.3530000448226929,56.56700134277344 -0.6570000052452087,21.91699981689453 -1.1469999551773071,-0.31299999356269836 C-1.6269999742507935,-22.273000717163086 -1.1469999551773071,-56.5629997253418 -1.1469999551773071,-56.5629997253418"></path></g></g><g transform="matrix(1,0,0,1,976.7559814453125,945.0369873046875)" opacity="1" style="display: block;"><g opacity="1" transform="matrix(1,0,0,1,0,0)"><path stroke-linecap="butt" stroke-linejoin="miter" fill-opacity="0" stroke-miterlimit="4" stroke="rgb(26,26,26)" stroke-opacity="1" stroke-width="1.25" d=" M-34.375,2.2209999561309814 C-12.295000076293945,3.88100004196167 32.875,5.090000152587891 34.375,-3.4100000858306885"></path></g></g><g transform="matrix(1,0,0,1,986.8729858398438,930.31201171875)" opacity="1" style="display: block;"><g opacity="1" transform="matrix(1,0,0,1,0,0)"><path fill="rgb(26,26,26)" fill-opacity="0.22" d=" M12.505000114440918,7.183000087738037 C12.505000114440918,7.183000087738037 -18.125,0.31299999356269836 -18.125,0.31299999356269836 C-18.125,0.31299999356269836 -18.125,-7.186999797821045 -18.125,-7.186999797821045 C-18.125,-7.186999797821045 -11.255000114440918,-4.066999912261963 -11.255000114440918,-4.066999912261963 C-0.004999999888241291,-0.31700000166893005 3.744999885559082,0.31299999356269836 18.125,4.063000202178955 C18.125,4.063000202178955 12.505000114440918,7.183000087738037 12.505000114440918,7.183000087738037z"></path></g></g><g transform="matrix(1,0,0,1,864.8829956054688,945.0360107421875)" opacity="1" style="display: block;"><g opacity="1" transform="matrix(1,0,0,1,0,0)"><path stroke-linecap="butt" stroke-linejoin="miter" fill-opacity="0" stroke-miterlimit="4" stroke="rgb(26,26,26)" stroke-opacity="1" stroke-width="1.25" d=" M-34.375,2.2209999561309814 C-12.295000076293945,3.88100004196167 32.875,5.090000152587891 34.375,-3.4100000858306885"></path></g></g><g transform="matrix(1,0,0,1,874.3759765625,930)" opacity="1" style="display: block;"><g opacity="1" transform="matrix(1,0,0,1,0,0)"><path fill="rgb(26,26,26)" fill-opacity="0.22" d=" M12.505000114440918,7.5 C12.505000114440918,7.5 -18.125,0.6299999952316284 -18.125,0.6299999952316284 C-18.125,0.6299999952316284 -18.125,-7.5 -18.125,-7.5 C-18.125,-7.5 -13.744999885559082,-5.619999885559082 -13.744999885559082,-5.619999885559082 C-0.004999999888241291,-1.8700000047683716 3.744999885559082,-1.25 18.125,3.119999885559082 C18.125,3.119999885559082 12.505000114440918,7.5 12.505000114440918,7.5z"></path></g></g><g transform="matrix(1,0,0,1,909.5460205078125,737.8289794921875)" opacity="1" style="display: block;"><g opacity="1" transform="matrix(1,0,0,1,0,0)"><path fill="rgb(26,26,26)" fill-opacity="0.21" d=" M5.966000080108643,-18.70199966430664 C1.3960000276565552,-61.582000732421875 -37.16400146484375,-148.70199584960938 -37.16400146484375,-148.70199584960938 C-37.16400146484375,-148.70199584960938 -7.164000034332275,-33.70199966430664 -7.164000034332275,-33.70199966430664 C-7.164000034332275,-33.70199966430664 22.836000442504883,147.54800415039062 22.836000442504883,147.54800415039062 C22.836000442504883,147.54800415039062 29.916000366210938,150.1479949951172 32.83599853515625,147.54800415039062 C49.715999603271484,132.54800415039062 12.215999603271484,40.04800033569336 5.966000080108643,-18.70199966430664z"></path></g></g><g transform="matrix(1,0,0,1,705,928.43798828125)" opacity="1" style="display: block;"><g opacity="1" transform="matrix(1,0,0,1,0,0)"><path fill="rgb(198,225,255)" fill-opacity="1" d=" M34.380001068115234,-19.687999725341797 C34.380001068115234,-19.687999725341797 -75,-19.687999725341797 -75,-19.687999725341797 C-75,-19.687999725341797 -55,19.69300079345703 -55,19.69300079345703 C-55,19.69300079345703 56.880001068115234,19.69300079345703 56.880001068115234,19.69300079345703 C56.880001068115234,19.69300079345703 75,-19.687999725341797 75,-19.687999725341797 C75,-19.687999725341797 34.380001068115234,-19.687999725341797 34.380001068115234,-19.687999725341797z"></path></g></g><g transform="matrix(1,0,0,1,752.81201171875,928.43798828125)" opacity="1" style="display: block;"><g opacity="1" transform="matrix(1,0,0,1,0,0)"><path fill="rgb(26,26,26)" fill-opacity="0.07" d=" M-27.187999725341797,19.69300079345703 C-27.187999725341797,19.69300079345703 -13.437999725341797,-19.687999725341797 -13.437999725341797,-19.687999725341797 C-13.437999725341797,-19.687999725341797 27.19300079345703,-19.687999725341797 27.19300079345703,-19.687999725341797 C27.19300079345703,-19.687999725341797 9.062000274658203,19.69300079345703 9.062000274658203,19.69300079345703 C9.062000274658203,19.69300079345703 -27.187999725341797,19.69300079345703 -27.187999725341797,19.69300079345703z"></path></g></g><g transform="matrix(1,0,0,1,1150.6240234375,333.85101318359375)" opacity="1" style="display: block;"><g opacity="1" transform="matrix(1,0,0,1,0,0)"><path fill="rgb(74,144,226)" fill-opacity="1" d=" M154.375,-134.8564910888672 C154.375,-134.8564910888672 154.375,134.8564910888672 154.375,134.8564910888672 C154.375,144.6494140625 146.42391967773438,152.60049438476562 136.63099670410156,152.60049438476562 C136.63099670410156,152.60049438476562 -136.63099670410156,152.60049438476562 -136.63099670410156,152.60049438476562 C-146.42391967773438,152.60049438476562 -154.375,144.6494140625 -154.375,134.8564910888672 C-154.375,134.8564910888672 -154.375,-134.8564910888672 -154.375,-134.8564910888672 C-154.375,-144.6494140625 -146.42391967773438,-152.60049438476562 -136.63099670410156,-152.60049438476562 C-136.63099670410156,-152.60049438476562 136.63099670410156,-152.60049438476562 136.63099670410156,-152.60049438476562 C146.42391967773438,-152.60049438476562 154.375,-144.6494140625 154.375,-134.8564910888672z"></path></g></g><g transform="matrix(1,0,0,1,1177.241943359375,230.04800415039062)" opacity="1" style="display: block;"><g opacity="1" transform="matrix(1,0,0,1,0,0)"><path fill="rgb(255,255,255)" fill-opacity="1" d=" M108.23999786376953,0 C108.23999786376953,0 108.23999786376953,0 108.23999786376953,0 C108.23999786376953,2.448228359222412 106.25222778320312,4.435999870300293 103.80400085449219,4.435999870300293 C103.80400085449219,4.435999870300293 -103.80400085449219,4.435999870300293 -103.80400085449219,4.435999870300293 C-106.25222778320312,4.435999870300293 -108.23999786376953,2.448228359222412 -108.23999786376953,0 C-108.23999786376953,0 -108.23999786376953,0 -108.23999786376953,0 C-108.23999786376953,-2.448228359222412 -106.25222778320312,-4.435999870300293 -103.80400085449219,-4.435999870300293 C-103.80400085449219,-4.435999870300293 103.80400085449219,-4.435999870300293 103.80400085449219,-4.435999870300293 C106.25222778320312,-4.435999870300293 108.23999786376953,-2.448228359222412 108.23999786376953,0z"></path></g></g><g transform="matrix(1,0,0,1,1128.4449462890625,247.79100036621094)" opacity="1" style="display: block;"><g opacity="1" transform="matrix(1,0,0,1,0,0)"><path fill="rgb(255,255,255)" fill-opacity="1" d=" M59.44350051879883,0 C59.44350051879883,0 59.44350051879883,0 59.44350051879883,0 C59.44350051879883,2.448228359222412 57.45573043823242,4.435999870300293 55.00749969482422,4.435999870300293 C55.00749969482422,4.435999870300293 -55.00749969482422,4.435999870300293 -55.00749969482422,4.435999870300293 C-57.45573043823242,4.435999870300293 -59.44350051879883,2.448228359222412 -59.44350051879883,0 C-59.44350051879883,0 -59.44350051879883,0 -59.44350051879883,0 C-59.44350051879883,-2.448228359222412 -57.45573043823242,-4.435999870300293 -55.00749969482422,-4.435999870300293 C-55.00749969482422,-4.435999870300293 55.00749969482422,-4.435999870300293 55.00749969482422,-4.435999870300293 C57.45573043823242,-4.435999870300293 59.44350051879883,-2.448228359222412 59.44350051879883,0z"></path></g></g><g transform="matrix(1,0,0,1,1036.175048828125,238.9199981689453)" opacity="1" style="display: block;"><g opacity="1" transform="matrix(1,0,0,1,0,0)"><path fill="rgb(255,255,255)" fill-opacity="1" d=" M16.85700035095215,-11.534000396728516 C16.85700035095215,-11.534000396728516 16.85700035095215,11.534000396728516 16.85700035095215,11.534000396728516 C16.85700035095215,14.471763610839844 14.471763610839844,16.85700035095215 11.534000396728516,16.85700035095215 C11.534000396728516,16.85700035095215 -11.534000396728516,16.85700035095215 -11.534000396728516,16.85700035095215 C-14.471763610839844,16.85700035095215 -16.85700035095215,14.471763610839844 -16.85700035095215,11.534000396728516 C-16.85700035095215,11.534000396728516 -16.85700035095215,-11.534000396728516 -16.85700035095215,-11.534000396728516 C-16.85700035095215,-14.471763610839844 -14.471763610839844,-16.85700035095215 -11.534000396728516,-16.85700035095215 C-11.534000396728516,-16.85700035095215 11.534000396728516,-16.85700035095215 11.534000396728516,-16.85700035095215 C14.471763610839844,-16.85700035095215 16.85700035095215,-14.471763610839844 16.85700035095215,-11.534000396728516z"></path></g></g><g transform="matrix(1,0,0,1,1177.241943359375,293.927001953125)" opacity="1" style="display: block;"><g opacity="1" transform="matrix(1,0,0,1,0,0)"><path fill="rgb(255,255,255)" fill-opacity="1" d=" M108.23999786376953,0 C108.23999786376953,0 108.23999786376953,0 108.23999786376953,0 C108.23999786376953,2.448228359222412 106.25222778320312,4.435999870300293 103.80400085449219,4.435999870300293 C103.80400085449219,4.435999870300293 -103.80400085449219,4.435999870300293 -103.80400085449219,4.435999870300293 C-106.25222778320312,4.435999870300293 -108.23999786376953,2.448228359222412 -108.23999786376953,0 C-108.23999786376953,0 -108.23999786376953,0 -108.23999786376953,0 C-108.23999786376953,-2.448228359222412 -106.25222778320312,-4.435999870300293 -103.80400085449219,-4.435999870300293 C-103.80400085449219,-4.435999870300293 103.80400085449219,-4.435999870300293 103.80400085449219,-4.435999870300293 C106.25222778320312,-4.435999870300293 108.23999786376953,-2.448228359222412 108.23999786376953,0z"></path></g></g><g transform="matrix(1,0,0,1,1128.4449462890625,311.6700134277344)" opacity="1" style="display: block;"><g opacity="1" transform="matrix(1,0,0,1,0,0)"><path fill="rgb(255,255,255)" fill-opacity="1" d=" M59.44350051879883,0 C59.44350051879883,0 59.44350051879883,0 59.44350051879883,0 C59.44350051879883,2.448228359222412 57.45573043823242,4.435999870300293 55.00749969482422,4.435999870300293 C55.00749969482422,4.435999870300293 -55.00749969482422,4.435999870300293 -55.00749969482422,4.435999870300293 C-57.45573043823242,4.435999870300293 -59.44350051879883,2.448228359222412 -59.44350051879883,0 C-59.44350051879883,0 -59.44350051879883,0 -59.44350051879883,0 C-59.44350051879883,-2.448228359222412 -57.45573043823242,-4.435999870300293 -55.00749969482422,-4.435999870300293 C-55.00749969482422,-4.435999870300293 55.00749969482422,-4.435999870300293 55.00749969482422,-4.435999870300293 C57.45573043823242,-4.435999870300293 59.44350051879883,-2.448228359222412 59.44350051879883,0z"></path></g></g><g transform="matrix(1,0,0,1,1036.175048828125,302.79901123046875)" opacity="1" style="display: block;"><g opacity="1" transform="matrix(1,0,0,1,0,0)"><path fill="rgb(255,255,255)" fill-opacity="1" d=" M16.85700035095215,-11.534000396728516 C16.85700035095215,-11.534000396728516 16.85700035095215,11.534000396728516 16.85700035095215,11.534000396728516 C16.85700035095215,14.471763610839844 14.471763610839844,16.85700035095215 11.534000396728516,16.85700035095215 C11.534000396728516,16.85700035095215 -11.534000396728516,16.85700035095215 -11.534000396728516,16.85700035095215 C-14.471763610839844,16.85700035095215 -16.85700035095215,14.471763610839844 -16.85700035095215,11.534000396728516 C-16.85700035095215,11.534000396728516 -16.85700035095215,-11.534000396728516 -16.85700035095215,-11.534000396728516 C-16.85700035095215,-14.471763610839844 -14.471763610839844,-16.85700035095215 -11.534000396728516,-16.85700035095215 C-11.534000396728516,-16.85700035095215 11.534000396728516,-16.85700035095215 11.534000396728516,-16.85700035095215 C14.471763610839844,-16.85700035095215 16.85700035095215,-14.471763610839844 16.85700035095215,-11.534000396728516z"></path></g></g><g transform="matrix(1,0,0,1,1177.241943359375,357.8059997558594)" opacity="1" style="display: block;"><g opacity="1" transform="matrix(1,0,0,1,0,0)"><path fill="rgb(255,255,255)" fill-opacity="1" d=" M108.23999786376953,0 C108.23999786376953,0 108.23999786376953,0 108.23999786376953,0 C108.23999786376953,2.448228359222412 106.25222778320312,4.435999870300293 103.80400085449219,4.435999870300293 C103.80400085449219,4.435999870300293 -103.80400085449219,4.435999870300293 -103.80400085449219,4.435999870300293 C-106.25222778320312,4.435999870300293 -108.23999786376953,2.448228359222412 -108.23999786376953,0 C-108.23999786376953,0 -108.23999786376953,0 -108.23999786376953,0 C-108.23999786376953,-2.448228359222412 -106.25222778320312,-4.435999870300293 -103.80400085449219,-4.435999870300293 C-103.80400085449219,-4.435999870300293 103.80400085449219,-4.435999870300293 103.80400085449219,-4.435999870300293 C106.25222778320312,-4.435999870300293 108.23999786376953,-2.448228359222412 108.23999786376953,0z"></path></g></g><g transform="matrix(1,0,0,1,1128.4449462890625,375.54901123046875)" opacity="1" style="display: block;"><g opacity="1" transform="matrix(1,0,0,1,0,0)"><path fill="rgb(255,255,255)" fill-opacity="1" d=" M59.44350051879883,0 C59.44350051879883,0 59.44350051879883,0 59.44350051879883,0 C59.44350051879883,2.448228359222412 57.45573043823242,4.435999870300293 55.00749969482422,4.435999870300293 C55.00749969482422,4.435999870300293 -55.00749969482422,4.435999870300293 -55.00749969482422,4.435999870300293 C-57.45573043823242,4.435999870300293 -59.44350051879883,2.448228359222412 -59.44350051879883,0 C-59.44350051879883,0 -59.44350051879883,0 -59.44350051879883,0 C-59.44350051879883,-2.448228359222412 -57.45573043823242,-4.435999870300293 -55.00749969482422,-4.435999870300293 C-55.00749969482422,-4.435999870300293 55.00749969482422,-4.435999870300293 55.00749969482422,-4.435999870300293 C57.45573043823242,-4.435999870300293 59.44350051879883,-2.448228359222412 59.44350051879883,0z"></path></g></g><g transform="matrix(1,0,0,1,1036.175048828125,366.6780090332031)" opacity="1" style="display: block;"><g opacity="1" transform="matrix(1,0,0,1,0,0)"><path fill="rgb(255,255,255)" fill-opacity="1" d=" M16.85700035095215,-11.534000396728516 C16.85700035095215,-11.534000396728516 16.85700035095215,11.534000396728516 16.85700035095215,11.534000396728516 C16.85700035095215,14.471763610839844 14.471763610839844,16.85700035095215 11.534000396728516,16.85700035095215 C11.534000396728516,16.85700035095215 -11.534000396728516,16.85700035095215 -11.534000396728516,16.85700035095215 C-14.471763610839844,16.85700035095215 -16.85700035095215,14.471763610839844 -16.85700035095215,11.534000396728516 C-16.85700035095215,11.534000396728516 -16.85700035095215,-11.534000396728516 -16.85700035095215,-11.534000396728516 C-16.85700035095215,-14.471763610839844 -14.471763610839844,-16.85700035095215 -11.534000396728516,-16.85700035095215 C-11.534000396728516,-16.85700035095215 11.534000396728516,-16.85700035095215 11.534000396728516,-16.85700035095215 C14.471763610839844,-16.85700035095215 16.85700035095215,-14.471763610839844 16.85700035095215,-11.534000396728516z"></path></g></g><g transform="matrix(1,0,0,1,1177.241943359375,421.6860046386719)" opacity="1" style="display: block;"><g opacity="1" transform="matrix(1,0,0,1,0,0)"><path fill="rgb(255,255,255)" fill-opacity="1" d=" M108.23999786376953,0 C108.23999786376953,0 108.23999786376953,0 108.23999786376953,0 C108.23999786376953,2.448228359222412 106.25222778320312,4.435999870300293 103.80400085449219,4.435999870300293 C103.80400085449219,4.435999870300293 -103.80400085449219,4.435999870300293 -103.80400085449219,4.435999870300293 C-106.25222778320312,4.435999870300293 -108.23999786376953,2.448228359222412 -108.23999786376953,0 C-108.23999786376953,0 -108.23999786376953,0 -108.23999786376953,0 C-108.23999786376953,-2.448228359222412 -106.25222778320312,-4.435999870300293 -103.80400085449219,-4.435999870300293 C-103.80400085449219,-4.435999870300293 103.80400085449219,-4.435999870300293 103.80400085449219,-4.435999870300293 C106.25222778320312,-4.435999870300293 108.23999786376953,-2.448228359222412 108.23999786376953,0z"></path></g></g><g transform="matrix(1,0,0,1,1128.4449462890625,439.42999267578125)" opacity="1" style="display: block;"><g opacity="1" transform="matrix(1,0,0,1,0,0)"><path fill="rgb(255,255,255)" fill-opacity="1" d=" M59.44350051879883,0 C59.44350051879883,0 59.44350051879883,0 59.44350051879883,0 C59.44350051879883,2.448228359222412 57.45573043823242,4.435999870300293 55.00749969482422,4.435999870300293 C55.00749969482422,4.435999870300293 -55.00749969482422,4.435999870300293 -55.00749969482422,4.435999870300293 C-57.45573043823242,4.435999870300293 -59.44350051879883,2.448228359222412 -59.44350051879883,0 C-59.44350051879883,0 -59.44350051879883,0 -59.44350051879883,0 C-59.44350051879883,-2.448228359222412 -57.45573043823242,-4.435999870300293 -55.00749969482422,-4.435999870300293 C-55.00749969482422,-4.435999870300293 55.00749969482422,-4.435999870300293 55.00749969482422,-4.435999870300293 C57.45573043823242,-4.435999870300293 59.44350051879883,-2.448228359222412 59.44350051879883,0z"></path></g></g><g transform="matrix(1,0,0,1,1036.175048828125,430.5580139160156)" opacity="1" style="display: block;"><g opacity="1" transform="matrix(1,0,0,1,0,0)"><path fill="rgb(255,255,255)" fill-opacity="1" d=" M16.85700035095215,-11.534000396728516 C16.85700035095215,-11.534000396728516 16.85700035095215,11.534000396728516 16.85700035095215,11.534000396728516 C16.85700035095215,14.471763610839844 14.471763610839844,16.85700035095215 11.534000396728516,16.85700035095215 C11.534000396728516,16.85700035095215 -11.534000396728516,16.85700035095215 -11.534000396728516,16.85700035095215 C-14.471763610839844,16.85700035095215 -16.85700035095215,14.471763610839844 -16.85700035095215,11.534000396728516 C-16.85700035095215,11.534000396728516 -16.85700035095215,-11.534000396728516 -16.85700035095215,-11.534000396728516 C-16.85700035095215,-14.471763610839844 -14.471763610839844,-16.85700035095215 -11.534000396728516,-16.85700035095215 C-11.534000396728516,-16.85700035095215 11.534000396728516,-16.85700035095215 11.534000396728516,-16.85700035095215 C14.471763610839844,-16.85700035095215 16.85700035095215,-14.471763610839844 16.85700035095215,-11.534000396728516z"></path></g></g><g transform="matrix(1,0,0,1,1037.43798828125,239.06199645996094)" opacity="1" style="display: block;"><g opacity="1" transform="matrix(1,0,0,1,0,0)"><path stroke-linecap="butt" stroke-linejoin="miter" fill-opacity="0" stroke-miterlimit="4" stroke="rgb(40,121,112)" stroke-opacity="1" stroke-width="5.323" d="M0 0"></path></g></g><g transform="matrix(1,0,0,1,1037.43798828125,302.81201171875)" opacity="1" style="display: block;"><g opacity="1" transform="matrix(1,0,0,1,0,0)"><path stroke-linecap="butt" stroke-linejoin="miter" fill-opacity="0" stroke-miterlimit="4" stroke="rgb(40,121,112)" stroke-opacity="1" stroke-width="5.323" d="M0 0"></path></g></g><g transform="matrix(1,0,0,1,1037.43798828125,364.81201171875)" opacity="1" style="display: block;"><g opacity="1" transform="matrix(1,0,0,1,0,0)"><path stroke-linecap="butt" stroke-linejoin="miter" fill-opacity="0" stroke-miterlimit="4" stroke="rgb(40,121,112)" stroke-opacity="1" stroke-width="5.323" d="M0 0"></path></g></g><g transform="matrix(1,0,0,1,953.052001953125,539.43896484375)" opacity="1" style="display: block;"><g opacity="1" transform="matrix(1,0,0,1,0,0)"><path fill="rgb(163,105,105)" fill-opacity="1" d=" M87.4540023803711,-197.18899536132812 C87.4540023803711,-197.18899536132812 112.4540023803711,-246.5989990234375 112.4540023803711,-237.8090057373047 C112.4540023803711,-224.68899536132812 107.4540023803711,-215.93899536132812 107.4540023803711,-215.93899536132812 C107.4540023803711,-215.93899536132812 121.2040023803711,-204.0590057373047 121.2040023803711,-204.0590057373047 C122.4540023803711,-195.3090057373047 110.58399963378906,-187.18899536132812 103.08399963378906,-182.8090057373047 C103.08399963378906,-182.8090057373047 91.2040023803711,-169.68899536132812 91.2040023803711,-169.68899536132812 C91.2040023803711,-169.68899536132812 74.9540023803711,-175.93899536132812 74.9540023803711,-175.93899536132812 C74.9540023803711,-175.93899536132812 87.4540023803711,-197.18899536132812 87.4540023803711,-197.18899536132812z"></path></g></g><g transform="matrix(1,0,0,1,914.9409790039062,595.0289916992188)" opacity="1" style="display: block;"><g opacity="1" transform="matrix(1,0,0,1,0,0)"><path fill="rgb(255,105,105)" fill-opacity="1" d=" M20.13800048828125,-323.92999267578125 C22.437999725341797,-322.7799987792969 24.277999877929688,-320.8800048828125 25.31800079345703,-318.5299987792969 C41.74800109863281,-281.2799987792969 68.1780014038086,-204.64999389648438 68.1780014038086,-204.64999389648438 C68.1780014038086,-204.64999389648438 68.1780014038086,-138.80999755859375 52.55799865722656,-149.64999389648438 C24.288000106811523,-169.27000427246094 15.447999954223633,-214.10000610351562 8.517999649047852,-249.22999572753906 C8.517999649047852,-249.22999572753906 8.517999649047852,-249.22999572753906 8.517999649047852,-249.22999572753906 C7.938000202178955,-252.14999389648438 7.377999782562256,-255.00999450683594 6.817999839782715,-257.7799987792969 C6.817999839782715,-257.7799987792969 -12.793000221252441,-271.1969909667969 -17.117000579833984,-305.3630065917969 C-21.44099998474121,-339.52899169921875 20.13800048828125,-323.92999267578125 20.13800048828125,-323.92999267578125z"></path></g></g><g transform="matrix(1,0,0,1,914.9409790039062,595.0289916992188)" opacity="1" style="display: block;"><g opacity="1" transform="matrix(1,0,0,1,0,0)"><path fill="rgb(255,105,105)" fill-opacity="1" d=" M68.1780014038086,-204.64999389648438 C68.1780014038086,-204.64999389648438 118.68800354003906,-252.77999877929688 118.68800354003906,-252.77999877929688 C134.3179931640625,-252.77999877929688 143.2779998779297,-239.64999389648438 143.68800354003906,-228.39999389648438 C135.18800354003906,-204.89999389648438 68.1780014038086,-138.80999755859375 52.55799865722656,-149.64999389648438 C24.288000106811523,-169.27000427246094 68.1780014038086,-204.64999389648438 68.1780014038086,-204.64999389648438z"></path></g></g></g></svg>